<?xml version="1.0" encoding="UTF-8" standalone="no"?><!DOCTYPE svg PUBLIC "-//W3C//DTD SVG 1.1//EN" "http://www.w3.org/Graphics/SVG/1.1/DTD/svg11.dtd"><svg width="100%" height="100%" viewBox="0 0 1920 320" version="1.1" xmlns="http://www.w3.org/2000/svg" xmlns:xlink="http://www.w3.org/1999/xlink" xml:space="preserve" xmlns:serif="http://www.serif.com/" style="fill-rule:evenodd;clip-rule:evenodd;stroke-linejoin:round;stroke-miterlimit:2;"><g><path d="M-0,305.555l0,-296.65l58.582,0l0,103.952l43.625,0l0,-103.952l58.582,0l0,296.65l-58.582,0l0,-137.855l-43.625,0l0,137.855l-58.582,0Z" style="fill-rule:nonzero;"/><path d="M388.886,196.368l0,18.198l-151.566,0c0.997,4.986 2.618,9.598 4.861,13.835c2.244,4.238 4.778,7.853 7.603,10.844c3.158,3.324 6.481,6.066 9.971,8.226c3.49,2.16 7.728,3.822 12.714,4.986c2.16,0.665 4.446,1.163 6.855,1.496c2.41,0.332 4.944,0.499 7.603,0.499c7.977,0 15.29,-1.33 21.937,-3.989c6.648,-2.659 12.049,-6.398 16.204,-11.218c0.997,-1.163 1.911,-2.41 2.742,-3.739c0.831,-1.33 1.579,-2.659 2.244,-3.989l57.086,0c-2.327,10.304 -5.734,19.278 -10.221,26.923c-4.487,7.645 -9.473,14.043 -14.957,19.195c-6.315,6.315 -13.42,11.716 -21.314,16.204c-7.894,4.487 -16.494,7.977 -25.801,10.47c-4.487,1.163 -9.14,2.077 -13.96,2.742c-4.82,0.665 -9.722,0.997 -14.708,0.997c-12.797,0 -24.388,-1.87 -34.775,-5.609c-10.387,-3.739 -19.652,-8.767 -27.795,-15.082c-17.782,-13.628 -29.997,-31.825 -36.645,-54.594c-3.324,-11.301 -4.986,-23.433 -4.986,-36.396c0,-12.464 1.745,-24.43 5.235,-35.897c3.49,-11.467 8.393,-21.688 14.708,-30.662c6.481,-9.14 14.085,-16.951 22.81,-23.433c8.725,-6.481 18.323,-11.467 28.793,-14.957c10.636,-3.49 21.688,-5.235 33.155,-5.235c11.135,0 22.02,1.87 32.656,5.609c10.636,3.739 20.026,8.933 28.169,15.58c8.476,6.98 15.83,14.957 22.062,23.931c6.232,8.974 11.01,19.112 14.334,30.413c3.324,10.969 4.986,22.519 4.986,34.651Zm-150.569,-19.195l95.476,0c-2.659,-8.808 -7.146,-16.37 -13.461,-22.685c-6.149,-6.149 -13.378,-10.47 -21.688,-12.963c-2.16,-0.499 -4.321,-0.914 -6.481,-1.246c-2.16,-0.332 -4.404,-0.499 -6.731,-0.499c-8.476,0 -16.619,2.244 -24.43,6.731c-2.825,1.662 -5.775,3.989 -8.85,6.98c-3.075,2.991 -5.858,6.731 -8.351,11.218c-2.327,4.155 -4.155,8.31 -5.484,12.464Z" style="fill-rule:nonzero;"/><path d="M407.582,88.676l56.089,0c0,1.828 -0.166,3.448 -0.499,4.861c-0.332,1.413 -0.914,3.282 -1.745,5.609c-0.831,2.493 -1.33,3.989 -1.496,4.487c-0.166,0.499 -0.457,1.039 -0.873,1.62c-0.415,0.582 -1.205,2.285 -2.368,5.11c-0.831,1.828 -1.828,3.49 -2.991,4.986l2.991,2.493c2.659,-3.989 5.277,-7.479 7.853,-10.47c2.576,-2.991 5.858,-5.9 9.847,-8.725c6.648,-4.653 14.625,-7.645 23.931,-8.974c4.321,-0.665 9.307,-0.997 14.957,-0.997l9.722,0l-2.493,53.596l-15.705,0c-13.129,0 -23.184,2.077 -30.164,6.232c-7.312,4.487 -10.969,10.636 -10.969,18.447l0,138.603l-56.089,0l0,-216.879Z" style="fill-rule:nonzero;"/><path d="M615.985,139.78c-0.997,0 -2.244,0.125 -3.739,0.374c-1.496,0.249 -2.908,0.54 -4.238,0.873c-1.33,0.332 -2.742,0.831 -4.238,1.496c-1.496,0.665 -2.908,1.33 -4.238,1.994c-1.33,0.499 -2.742,1.33 -4.238,2.493l0,158.546l-56.089,0l0,-216.879l56.089,0c0,1.994 -0.208,3.698 -0.623,5.11c-0.415,1.413 -0.956,3.116 -1.62,5.11c-0.831,2.659 -1.496,4.529 -1.994,5.609c-0.499,1.08 -1.413,3.033 -2.742,5.858c-0.499,0.831 -0.997,1.703 -1.496,2.618c-0.499,0.914 -0.997,1.703 -1.496,2.368l2.991,2.493c2.327,-3.49 5.277,-7.063 8.85,-10.719c3.573,-3.656 6.938,-6.648 10.096,-8.974c3.822,-2.659 7.52,-4.861 11.093,-6.606c3.573,-1.745 7.354,-3.116 11.343,-4.113c1.828,-0.332 3.698,-0.623 5.609,-0.873c1.911,-0.249 3.781,-0.374 5.609,-0.374c2.493,0 5.027,0.291 7.603,0.873c2.576,0.582 5.193,1.454 7.853,2.618c2.493,1.33 4.778,2.867 6.855,4.612c2.077,1.745 4.03,3.615 5.858,5.609c0.831,1.163 1.662,2.327 2.493,3.49c0.665,1.33 1.413,2.659 2.244,3.989c2.825,-2.493 6.108,-4.944 9.847,-7.354c3.739,-2.41 7.105,-4.363 10.096,-5.858c3.158,-1.662 6.648,-3.158 10.47,-4.487c3.822,-1.33 7.395,-2.244 10.719,-2.742c1.828,-0.166 3.615,-0.332 5.36,-0.499c1.745,-0.166 3.448,-0.249 5.11,-0.249c6.315,0 11.758,0.873 16.328,2.618c4.57,1.745 8.683,4.03 12.34,6.855c3.656,2.991 6.814,6.814 9.473,11.467c2.659,4.653 4.57,9.639 5.734,14.957c1.33,5.983 1.994,12.298 1.994,18.946l0,164.529l-56.089,0l0,-152.064c0,-1.994 -0.166,-3.573 -0.499,-4.736c-0.332,-1.163 -0.914,-2.493 -1.745,-3.989c-0.831,-1.33 -1.828,-2.285 -2.991,-2.867c-1.163,-0.582 -2.244,-1.122 -3.241,-1.62c-1.163,-0.332 -2.659,-0.499 -4.487,-0.499c-7.645,0 -14.791,3.324 -21.439,9.971l0,155.804l-51.104,0l0,-152.064c0,-3.822 -0.748,-6.648 -2.244,-8.476c-1.33,-1.33 -2.368,-2.285 -3.116,-2.867c-0.748,-0.582 -1.953,-1.205 -3.615,-1.87c-1.163,-0.332 -2.742,-0.499 -4.736,-0.499Z" style="fill-rule:nonzero;"/><path d="M996.894,196.368l0,18.198l-151.566,0c0.997,4.986 2.618,9.598 4.861,13.835c2.244,4.238 4.778,7.853 7.603,10.844c3.158,3.324 6.481,6.066 9.971,8.226c3.49,2.16 7.728,3.822 12.714,4.986c2.16,0.665 4.446,1.163 6.855,1.496c2.41,0.332 4.944,0.499 7.603,0.499c7.977,0 15.29,-1.33 21.937,-3.989c6.648,-2.659 12.049,-6.398 16.204,-11.218c0.997,-1.163 1.911,-2.41 2.742,-3.739c0.831,-1.33 1.579,-2.659 2.244,-3.989l57.086,0c-2.327,10.304 -5.734,19.278 -10.221,26.923c-4.487,7.645 -9.473,14.043 -14.957,19.195c-6.315,6.315 -13.42,11.716 -21.314,16.204c-7.894,4.487 -16.494,7.977 -25.801,10.47c-4.487,1.163 -9.14,2.077 -13.96,2.742c-4.82,0.665 -9.722,0.997 -14.708,0.997c-12.797,0 -24.388,-1.87 -34.775,-5.609c-10.387,-3.739 -19.652,-8.767 -27.795,-15.082c-17.782,-13.628 -29.997,-31.825 -36.645,-54.594c-3.324,-11.301 -4.986,-23.433 -4.986,-36.396c0,-12.464 1.745,-24.43 5.235,-35.897c3.49,-11.467 8.393,-21.688 14.708,-30.662c6.481,-9.14 14.085,-16.951 22.81,-23.433c8.725,-6.481 18.323,-11.467 28.793,-14.957c10.636,-3.49 21.688,-5.235 33.155,-5.235c11.135,0 22.02,1.87 32.656,5.609c10.636,3.739 20.026,8.933 28.169,15.58c8.476,6.98 15.83,14.957 22.062,23.931c6.232,8.974 11.01,19.112 14.334,30.413c3.324,10.969 4.986,22.519 4.986,34.651Zm-150.569,-19.195l95.476,0c-2.659,-8.808 -7.146,-16.37 -13.461,-22.685c-6.149,-6.149 -13.378,-10.47 -21.688,-12.963c-2.16,-0.499 -4.321,-0.914 -6.481,-1.246c-2.16,-0.332 -4.404,-0.499 -6.731,-0.499c-8.476,0 -16.619,2.244 -24.43,6.731c-2.825,1.662 -5.775,3.989 -8.85,6.98c-3.075,2.991 -5.858,6.731 -8.351,11.218c-2.327,4.155 -4.155,8.31 -5.484,12.464Z" style="fill-rule:nonzero;"/><path d="M1095.362,153.491l0,-9.473c0,-7.811 -4.903,-11.716 -14.708,-11.716c-8.476,0 -12.714,4.072 -12.714,12.215c0,0.831 0.083,1.703 0.249,2.618c0.166,0.914 0.748,2.036 1.745,3.365c0.997,1.662 2.576,3.615 4.736,5.858c2.16,2.244 4.903,4.778 8.226,7.603c1.662,1.496 3.615,3.158 5.858,4.986c2.244,1.828 4.778,3.739 7.603,5.734c9.14,7.146 16.536,13.046 22.186,17.699c5.65,4.653 11.052,9.722 16.204,15.206c3.822,4.155 7.063,8.517 9.722,13.088c2.659,4.57 4.487,9.016 5.484,13.337c0.997,4.653 1.496,9.473 1.496,14.459c0,19.278 -6.108,34.028 -18.323,44.248c-12.215,10.221 -30.039,15.331 -53.472,15.331c-18.281,0 -33.155,-3.241 -44.622,-9.722c-6.648,-3.656 -11.758,-8.102 -15.331,-13.337c-3.573,-5.235 -6.024,-10.262 -7.354,-15.082c-1.994,-6.648 -2.991,-13.628 -2.991,-20.94l0,-19.444l48.611,0l0,14.459c0,4.487 1.163,8.143 3.49,10.969c1.496,1.994 2.867,3.365 4.113,4.113c1.246,0.748 2.95,1.371 5.11,1.87c0.997,0.332 2.036,0.582 3.116,0.748c1.08,0.166 2.202,0.249 3.365,0.249c1.994,0 3.864,-0.166 5.609,-0.499c1.745,-0.332 3.698,-1.08 5.858,-2.244c2.991,-1.662 4.986,-3.989 5.983,-6.98c0.499,-1.994 0.748,-3.656 0.748,-4.986c0,-1.662 -0.249,-3.324 -0.748,-4.986c-0.499,-1.662 -1.413,-3.407 -2.742,-5.235c-1.163,-1.496 -3.199,-3.573 -6.108,-6.232c-2.908,-2.659 -5.775,-5.152 -8.6,-7.479c-1.828,-1.496 -3.822,-3.075 -5.983,-4.736c-2.16,-1.662 -4.57,-3.49 -7.229,-5.484c-7.811,-5.983 -14.833,-11.633 -21.065,-16.951c-6.232,-5.318 -11.259,-10.221 -15.082,-14.708c-3.989,-4.653 -7.146,-9.057 -9.473,-13.212c-2.327,-4.155 -3.989,-8.559 -4.986,-13.212c-0.997,-4.487 -1.496,-9.14 -1.496,-13.96c0,-36.562 22.27,-54.843 66.809,-54.843c8.31,0 16.079,0.706 23.308,2.119c7.229,1.413 13.337,3.448 18.323,6.108c10.47,5.817 17.533,14.043 21.189,24.679c1.662,5.152 2.493,11.218 2.493,18.198l0,16.204l-48.611,0Z" style="fill-rule:nonzero;"/><path d="M1229.977,155.485c0,-16.453 2.576,-32.033 7.728,-46.741c5.152,-14.708 12.381,-28.377 21.688,-41.008c9.14,-12.464 20.068,-23.267 32.781,-32.407c12.714,-9.14 26.383,-16.204 41.008,-21.189c7.312,-2.493 14.916,-4.404 22.81,-5.734c7.894,-1.33 15.913,-1.994 24.056,-1.994c16.785,0 32.573,2.618 47.364,7.853c14.791,5.235 28.335,12.257 40.634,21.065c14.126,10.47 25.593,22.145 34.401,35.025c8.808,12.88 15.373,25.635 19.694,38.265c2.493,7.479 4.404,15.123 5.734,22.934c1.33,7.811 1.994,15.788 1.994,23.931c0,16.287 -2.534,32.158 -7.603,47.614c-5.069,15.456 -12.173,29.582 -21.314,42.379c-9.307,12.63 -20.317,23.641 -33.03,33.03c-12.714,9.39 -26.3,16.578 -40.758,21.563c-15.123,5.318 -30.828,7.977 -47.115,7.977c-16.619,0 -32.407,-2.659 -47.364,-7.977c-14.957,-5.318 -28.585,-12.547 -40.883,-21.688c-12.464,-9.307 -23.308,-20.192 -32.532,-32.656c-9.224,-12.464 -16.411,-26.59 -21.563,-42.379c-2.493,-7.479 -4.404,-15.248 -5.734,-23.308c-1.33,-8.06 -1.994,-16.245 -1.994,-24.555Zm58.582,0.499c0,10.138 1.579,20.109 4.736,29.914c3.158,9.805 7.479,18.447 12.963,25.926c5.983,8.31 12.797,15.331 20.441,21.065c7.645,5.734 15.871,10.013 24.679,12.838c9.307,3.324 18.946,4.986 28.917,4.986c9.971,0 19.527,-1.62 28.668,-4.861c9.14,-3.241 17.45,-7.769 24.929,-13.586c7.479,-5.65 14.043,-12.423 19.694,-20.317c5.65,-7.894 9.971,-16.578 12.963,-26.05c1.496,-4.653 2.659,-9.473 3.49,-14.459c0.831,-4.986 1.246,-10.138 1.246,-15.456c0,-9.805 -1.579,-19.403 -4.736,-28.793c-3.158,-9.39 -7.479,-17.824 -12.963,-25.303c-11.633,-15.788 -26.59,-26.923 -44.871,-33.404c-9.14,-3.158 -18.613,-4.736 -28.419,-4.736c-7.977,0 -16.619,1.288 -25.926,3.864c-9.307,2.576 -18.613,7.271 -27.92,14.085c-7.645,5.65 -14.334,12.298 -20.068,19.943c-5.734,7.645 -10.096,16.037 -13.088,25.178c-1.496,4.653 -2.659,9.431 -3.49,14.334c-0.831,4.903 -1.246,9.847 -1.246,14.833Z" style="fill-rule:nonzero;"/><path d="M1549.81,88.676l56.089,0c0,0.665 -0.166,2.036 -0.499,4.113c-0.332,2.077 -0.748,3.698 -1.246,4.861c-0.665,1.828 -1.33,3.656 -1.994,5.484c-0.665,1.828 -1.662,3.989 -2.991,6.481c-0.499,0.997 -0.997,1.953 -1.496,2.867c-0.499,0.914 -1.08,1.87 -1.745,2.867l2.991,2.493c3.158,-4.653 6.149,-8.434 8.974,-11.343c2.825,-2.908 5.983,-5.775 9.473,-8.6c3.158,-2.493 6.648,-4.653 10.47,-6.481c3.822,-1.828 7.562,-3.158 11.218,-3.989c1.828,-0.332 3.698,-0.623 5.609,-0.873c1.911,-0.249 3.864,-0.374 5.858,-0.374c4.986,0 9.93,0.789 14.833,2.368c4.903,1.579 9.182,3.947 12.838,7.105c7.312,6.648 12.132,15.954 14.459,27.92c0.499,2.991 0.914,6.149 1.246,9.473c0.332,3.324 0.499,6.814 0.499,10.47l0,162.036l-56.089,0l0,-152.064c0,-1.994 -0.166,-3.532 -0.499,-4.612c-0.332,-1.08 -0.997,-2.534 -1.994,-4.363c-0.665,-0.997 -1.662,-1.911 -2.991,-2.742c-1.33,-0.831 -2.493,-1.33 -3.49,-1.496c-1.662,-0.332 -3.158,-0.499 -4.487,-0.499c-1.33,0 -2.576,0.125 -3.739,0.374c-1.163,0.249 -2.41,0.54 -3.739,0.873c-1.496,0.332 -2.742,0.789 -3.739,1.371c-0.997,0.582 -2.327,1.288 -3.989,2.119c-0.665,0.332 -1.288,0.706 -1.87,1.122c-0.582,0.415 -1.205,0.873 -1.87,1.371l0,158.546l-56.089,0l0,-216.879Z" style="fill-rule:nonzero;"/><path d="M1920,196.368l0,18.198l-151.566,0c0.997,4.986 2.618,9.598 4.861,13.835c2.244,4.238 4.778,7.853 7.603,10.844c3.158,3.324 6.481,6.066 9.971,8.226c3.49,2.16 7.728,3.822 12.714,4.986c2.16,0.665 4.446,1.163 6.855,1.496c2.41,0.332 4.944,0.499 7.603,0.499c7.977,0 15.29,-1.33 21.937,-3.989c6.648,-2.659 12.049,-6.398 16.204,-11.218c0.997,-1.163 1.911,-2.41 2.742,-3.739c0.831,-1.33 1.579,-2.659 2.244,-3.989l57.086,0c-2.327,10.304 -5.734,19.278 -10.221,26.923c-4.487,7.645 -9.473,14.043 -14.957,19.195c-6.315,6.315 -13.42,11.716 -21.314,16.204c-7.894,4.487 -16.494,7.977 -25.801,10.47c-4.487,1.163 -9.14,2.077 -13.96,2.742c-4.82,0.665 -9.722,0.997 -14.708,0.997c-12.797,0 -24.388,-1.87 -34.775,-5.609c-10.387,-3.739 -19.652,-8.767 -27.795,-15.082c-17.782,-13.628 -29.997,-31.825 -36.645,-54.594c-3.324,-11.301 -4.986,-23.433 -4.986,-36.396c0,-12.464 1.745,-24.43 5.235,-35.897c3.49,-11.467 8.393,-21.688 14.708,-30.662c6.481,-9.14 14.085,-16.951 22.81,-23.433c8.725,-6.481 18.323,-11.467 28.793,-14.957c10.636,-3.49 21.688,-5.235 33.155,-5.235c11.135,0 22.02,1.87 32.656,5.609c10.636,3.739 20.026,8.933 28.169,15.58c8.476,6.98 15.83,14.957 22.062,23.931c6.232,8.974 11.01,19.112 14.334,30.413c3.324,10.969 4.986,22.519 4.986,34.651Zm-150.569,-19.195l95.476,0c-2.659,-8.808 -7.146,-16.37 -13.461,-22.685c-6.149,-6.149 -13.378,-10.47 -21.688,-12.963c-2.16,-0.499 -4.321,-0.914 -6.481,-1.246c-2.16,-0.332 -4.404,-0.499 -6.731,-0.499c-8.476,0 -16.619,2.244 -24.43,6.731c-2.825,1.662 -5.775,3.989 -8.85,6.98c-3.075,2.991 -5.858,6.731 -8.351,11.218c-2.327,4.155 -4.155,8.31 -5.484,12.464Z" style="fill-rule:nonzero;"/></g></svg>